<?xml version="1.0" encoding="UTF-8"?>
<svg class="gsndiagram" viewBox="0 0 3438 1385" xmlns="http://www.w3.org/2000/svg">
<symbol id="module_icon">
<rect fill="lightgrey" height="5" stroke="black" stroke-width="1" width="10" x="0" y="0"/>
<rect fill="lightgrey" height="10" stroke="black" stroke-width="1" width="20" x="0" y="5"/>
</symbol>
<symbol id="acp">
<rect fill="black" height="10" stroke="black" stroke-width="1" width="10" x="0" y="0"/>
</symbol>
<marker id="composite_arrow" markerHeight="9" markerUnits="userSpaceOnUse" markerWidth="10" orient="auto-start-reverse" refX="0" refY="4.5">
<polyline fill-opacity="0" points="0 0, 6 4.5, 0 9" stroke="black" stroke-width="1"/>
<polyline fill-opacity="0" points="4 0, 10 4.5, 4 9" stroke="black" stroke-width="1"/>
<polyline fill-opacity="0" points="0 4.5, 10 4.5" stroke="black" stroke-width="1"/>
</marker>
<marker id="supportedby_arrow" markerHeight="9" markerUnits="userSpaceOnUse" markerWidth="10" orient="auto-start-reverse" refX="0" refY="4.5">
<polyline fill="black" points="0 0, 10 4.5, 0 9"/>
</marker>
<marker id="incontextof_arrow" markerHeight="9" markerUnits="userSpaceOnUse" markerWidth="10" orient="auto-start-reverse" refX="0" refY="4.5">
<polyline fill-opacity="0" points="0 0, 10 4.5, 0 9, 0 0" stroke="black" stroke-width="1"/>
</marker>
<g class="gsn_module___templates_safety_case_template_gsn_yaml gsnelem gsngoal" id="node_g1">
<title>G1</title>
<path class="border" d="M884,20 L1144,20 L1144,66 L884,66 z" fill-opacity="0" stroke="black" stroke-width="1"/>
<text font-family="Arial" font-size="12" font-weight="bold" x="891" y="39">G1</text>
<text font-family="Arial" font-size="12" x="891" y="58">Complete a safe flight in controlled airspace</text>
</g>
<g class="gsn_module___templates_safety_case_template_gsn_yaml gsnelem gsnctxt" id="node_c1">
<title>C1</title>
<path class="border" d="M1194,20 L1532,20 C1542,20,1542,66,1532,66 L1194,66 C1184,66,1184,20,1194,20" fill-opacity="0" stroke="black" stroke-width="1"/>
<text font-family="Arial" font-size="12" font-weight="bold" x="1201" y="39">C1</text>
<text font-family="Arial" font-size="12" x="1201" y="58">In the context of all the information from the product line.</text>
</g>
<g class="gsn_module___templates_safety_case_template_gsn_yaml gsnelem gsnstgy" id="node_s1">
<title>S1</title>
<path class="border" d="M836,106 L1206,106 L1192,152 L822,152 z" fill-opacity="0" stroke="black" stroke-width="1"/>
<text font-family="Arial" font-size="12" font-weight="bold" x="844" y="125">S1</text>
<text font-family="Arial" font-size="12" x="840" y="144">Argue that all the hazards of the flight are sufficiently mitigated</text>
</g>
<g class="gsn_module___templates_safety_case_template_gsn_yaml gsnelem gsngoal" id="node_g3">
<title>G3</title>
<path class="border" d="M161,192 L461,192 L461,238 L161,238 z" fill-opacity="0" stroke="black" stroke-width="1"/>
<text font-family="Arial" font-size="12" font-weight="bold" x="168" y="211">G3</text>
<text font-family="Arial" font-size="12" x="168" y="230">The risk of ground collision is sufficiently mitigated</text>
</g>
<g class="gsn_module___templates_safety_case_template_gsn_yaml gsnelem gsngoal" id="node_g2">
<title>G2</title>
<path class="border" d="M1567,192 L1867,192 L1867,238 L1567,238 z" fill-opacity="0" stroke="black" stroke-width="1"/>
<text font-family="Arial" font-size="12" font-weight="bold" x="1574" y="211">G2</text>
<text font-family="Arial" font-size="12" x="1574" y="230">The risk of mid-air collision is sufficiently mitigated</text>
</g>
<g class="gsn_module___templates_safety_case_template_gsn_yaml gsnelem gsnstgy" id="node_s3">
<title>S3</title>
<path class="border" d="M157,278 L479,278 L465,324 L143,324 z" fill-opacity="0" stroke="black" stroke-width="1"/>
<text font-family="Arial" font-size="12" font-weight="bold" x="165" y="297">S3</text>
<text font-family="Arial" font-size="12" x="161" y="316">Argue that the causes of ground collision are mitigated</text>
</g>
<g class="gsn_module___templates_safety_case_template_gsn_yaml gsnelem gsnstgy" id="node_s2">
<title>S2</title>
<path class="border" d="M1606,278 L1842,278 L1828,324 L1592,324 z" fill-opacity="0" stroke="black" stroke-width="1"/>
<text font-family="Arial" font-size="12" font-weight="bold" x="1614" y="297">S2</text>
<text font-family="Arial" font-size="12" x="1610" y="316">Argue that causes of MAC are mitigated</text>
</g>
<g class="gsn_module___templates_safety_case_template_gsn_yaml gsnelem gsngoal" id="node_g11">
<title>G11</title>
<path class="border" d="M20,367 L290,367 L290,413 L20,413 z" fill-opacity="0" stroke="black" stroke-width="1"/>
<text font-family="Arial" font-size="12" font-weight="bold" x="27" y="386">G11</text>
<text font-family="Arial" font-size="12" x="27" y="405">The chances of a loss of battery event are low</text>
</g>
<g class="gsn_module___templates_safety_case_template_gsn_yaml gsnelem gsngoal gsn_undeveloped" id="node_g12">
<title>G12</title>
<path class="border" d="M330,364 L604,364 L604,416 L330,416 z" fill-opacity="0" stroke="black" stroke-width="1"/>
<text font-family="Arial" font-size="12" font-weight="bold" x="337" y="383">G12</text>
<text font-family="Arial" font-size="12" x="337" y="402">The chance of loss of control of the UAS is low</text>
<path d="M467,416 l5,5 l-5,5 l-5,-5 z" fill-opacity="0" stroke="black" stroke-width="1"/>
</g>
<g class="gsn_module___templates_safety_case_template_gsn_yaml gsnelem gsngoal gsn_undeveloped" id="node_g6">
<title>G6</title>
<path class="border" d="M644,364 L1080,364 L1080,416 L644,416 z" fill-opacity="0" stroke="black" stroke-width="1"/>
<text font-family="Arial" font-size="12" font-weight="bold" x="651" y="383">G6</text>
<text font-family="Arial" font-size="12" x="651" y="402">The UAS (or crewmember) can avoid other aircraft in the operating region.</text>
<path d="M862,416 l5,5 l-5,5 l-5,-5 z" fill-opacity="0" stroke="black" stroke-width="1"/>
</g>
<g class="gsn_module___templates_safety_case_template_gsn_yaml gsnelem gsngoal" id="node_g5">
<title>G5</title>
<path class="border" d="M1120,367 L1594,367 L1594,413 L1120,413 z" fill-opacity="0" stroke="black" stroke-width="1"/>
<text font-family="Arial" font-size="12" font-weight="bold" x="1127" y="386">G5</text>
<text font-family="Arial" font-size="12" x="1127" y="405">The UAS (or crewmember) is able to detect other aircraft in the operating region.</text>
</g>
<g class="gsn_module___templates_safety_case_template_gsn_yaml gsnelem gsngoal" id="node_g4">
<title>G4</title>
<path class="border" d="M2435,367 L2709,367 L2709,413 L2435,413 z" fill-opacity="0" stroke="black" stroke-width="1"/>
<text font-family="Arial" font-size="12" font-weight="bold" x="2442" y="386">G4</text>
<text font-family="Arial" font-size="12" x="2442" y="405">The chance of loss of control of the UAS is low</text>
</g>
<g class="gsn_module___templates_safety_case_template_gsn_yaml gsnelem gsnsltn" id="node_sn2">
<title>Sn2</title>
<path class="border" d="M51,560 a104,104,0,1,0,208,0 a104,104,0,1,0,-208,0 z" fill-opacity="0" stroke="black" stroke-width="1"/>
<text font-family="Arial" font-size="12" font-weight="bold" x="66" y="551">Sn2</text>
<text font-family="Arial" font-size="12" x="66" y="570">[battery_reserve] == "sufficient"</text>
</g>
<g class="gsn_module___templates_safety_case_template_gsn_yaml gsnelem gsnstgy" id="node_s5">
<title>S5</title>
<path class="border" d="M1203,537 L1525,537 L1511,583 L1189,583 z" fill-opacity="0" stroke="black" stroke-width="1"/>
<text font-family="Arial" font-size="12" font-weight="bold" x="1210" y="556">S5</text>
<text font-family="Arial" font-size="12" x="1206" y="575">Argue the ability to detect other aircraft is not hindered</text>
</g>
<g class="gsn_module___templates_safety_case_template_gsn_yaml gsnelem gsnstgy" id="node_s4">
<title>S4</title>
<path class="border" d="M2409,537 L2749,537 L2735,583 L2395,583 z" fill-opacity="0" stroke="black" stroke-width="1"/>
<text font-family="Arial" font-size="12" font-weight="bold" x="2416" y="556">S4</text>
<text font-family="Arial" font-size="12" x="2412" y="575">Argue that the causes of loss of UAS control are mitigated</text>
</g>
<g class="gsn_module___templates_safety_case_template_gsn_yaml gsnelem gsngoal" id="node_g16">
<title>G16</title>
<path class="border" d="M20,704 L290,704 L290,750 L20,750 z" fill-opacity="0" stroke="black" stroke-width="1"/>
<text font-family="Arial" font-size="12" font-weight="bold" x="27" y="723">G16</text>
<text font-family="Arial" font-size="12" x="27" y="742">If airspace is congested, a spotter is needed.</text>
</g>
<g class="gsn_module___templates_safety_case_template_gsn_yaml gsnelem gsngoal" id="node_g15">
<title>G15</title>
<path class="border" d="M330,704 L670,704 L670,750 L330,750 z" fill-opacity="0" stroke="black" stroke-width="1"/>
<text font-family="Arial" font-size="12" font-weight="bold" x="337" y="723">G15</text>
<text font-family="Arial" font-size="12" x="337" y="742">If airspace is sparsely populated, a spotter is not needed.</text>
</g>
<g class="gsn_module___templates_safety_case_template_gsn_yaml gsnelem gsngoal" id="node_g14">
<title>G14</title>
<path class="border" d="M710,704 L1040,704 L1040,750 L710,750 z" fill-opacity="0" stroke="black" stroke-width="1"/>
<text font-family="Arial" font-size="12" font-weight="bold" x="717" y="723">G14</text>
<text font-family="Arial" font-size="12" x="717" y="742">Detect-and-avoid systems are functioning (if applicable)</text>
</g>
<g class="gsn_module___templates_safety_case_template_gsn_yaml gsnelem gsngoal" id="node_g13">
<title>G13</title>
<path class="border" d="M1098,704 L1490,704 L1490,750 L1098,750 z" fill-opacity="0" stroke="black" stroke-width="1"/>
<text font-family="Arial" font-size="12" font-weight="bold" x="1105" y="723">G13</text>
<text font-family="Arial" font-size="12" x="1105" y="742">The pilot and spotters have sufficient training to spot other aircraft</text>
</g>
<g class="gsn_module___templates_safety_case_template_gsn_yaml gsnelem gsngoal" id="node_g9">
<title>G9</title>
<path class="border" d="M1530,704 L1880,704 L1880,750 L1530,750 z" fill-opacity="0" stroke="black" stroke-width="1"/>
<text font-family="Arial" font-size="12" font-weight="bold" x="1537" y="723">G9</text>
<text font-family="Arial" font-size="12" x="1537" y="742">Visibility in the OR will be greater than the allowed minimum</text>
</g>
<g class="gsn_module___templates_safety_case_template_gsn_yaml gsnelem gsngoal" id="node_g8">
<title>G8</title>
<path class="border" d="M1920,704 L2372,704 L2372,750 L1920,750 z" fill-opacity="0" stroke="black" stroke-width="1"/>
<text font-family="Arial" font-size="12" font-weight="bold" x="1927" y="723">G8</text>
<text font-family="Arial" font-size="12" x="1927" y="742">Precipitation in the OR will be less than the maximum allowed by the airframe</text>
</g>
<g class="gsn_module___templates_safety_case_template_gsn_yaml gsnelem gsngoal" id="node_g10">
<title>G10</title>
<path class="border" d="M2412,704 L2740,704 L2740,750 L2412,750 z" fill-opacity="0" stroke="black" stroke-width="1"/>
<text font-family="Arial" font-size="12" font-weight="bold" x="2419" y="723">G10</text>
<text font-family="Arial" font-size="12" x="2419" y="742">Temperatures in the OR will be within the allowed range</text>
</g>
<g class="gsn_module___templates_safety_case_template_gsn_yaml gsnelem gsngoal" id="node_g7">
<title>G7</title>
<path class="border" d="M2780,704 L3218,704 L3218,750 L2780,750 z" fill-opacity="0" stroke="black" stroke-width="1"/>
<text font-family="Arial" font-size="12" font-weight="bold" x="2787" y="723">G7</text>
<text font-family="Arial" font-size="12" x="2787" y="742">The wind in the OR will be less than the maximum allowed by the airframe.</text>
</g>
<g class="gsn_module___templates_safety_case_template_gsn_yaml gsnelem gsnsltn" id="node_sn8">
<title>Sn8</title>
<path class="border" d="M123,1041 a204,204,0,1,0,408,0 a204,204,0,1,0,-408,0 z" fill-opacity="0" stroke="black" stroke-width="1"/>
<text font-family="Arial" font-size="12" font-weight="bold" x="137" y="1032">Sn8</text>
<text font-family="Arial" font-size="12" x="137" y="1051">If [airspace] == "sparse" then [spotter] = True else [spotter] = False</text>
</g>
<g class="gsn_module___templates_safety_case_template_gsn_yaml gsnelem gsnsltn" id="node_sn7">
<title>Sn7</title>
<path class="border" d="M624,1041 a251,251,0,1,0,502,0 a251,251,0,1,0,-502,0 z" fill-opacity="0" stroke="black" stroke-width="1"/>
<text font-family="Arial" font-size="12" font-weight="bold" x="638" y="1032">Sn7</text>
<text font-family="Arial" font-size="12" x="638" y="1051">If [detect_and_avoid] == "exists" then [detect_and_avoid] == "functioning" else True</text>
</g>
<g class="gsn_module___templates_safety_case_template_gsn_yaml gsnelem gsnsltn" id="node_sn6">
<title>Sn6</title>
<path class="border" d="M1166,1041 a128,128,0,1,0,256,0 a128,128,0,1,0,-256,0 z" fill-opacity="0" stroke="black" stroke-width="1"/>
<text font-family="Arial" font-size="12" font-weight="bold" x="1181" y="1032">Sn6</text>
<text font-family="Arial" font-size="12" x="1181" y="1051">[flight_hours] &gt; n, [simulation_hours] &gt; m</text>
</g>
<g class="gsn_module___templates_safety_case_template_gsn_yaml gsnelem gsnsltn" id="node_sn5">
<title>Sn5</title>
<path class="border" d="M1615,1041 a90,90,0,1,0,180,0 a90,90,0,1,0,-180,0 z" fill-opacity="0" stroke="black" stroke-width="1"/>
<text font-family="Arial" font-size="12" font-weight="bold" x="1631" y="1032">Sn5</text>
<text font-family="Arial" font-size="12" x="1631" y="1051">[min_visibility] &lt; [visibility]</text>
</g>
<g class="gsn_module___templates_safety_case_template_gsn_yaml gsnelem gsnsltn" id="node_sn3">
<title>Sn3</title>
<path class="border" d="M2049,1041 a97,97,0,1,0,194,0 a97,97,0,1,0,-194,0 z" fill-opacity="0" stroke="black" stroke-width="1"/>
<text font-family="Arial" font-size="12" font-weight="bold" x="2064" y="1032">Sn3</text>
<text font-family="Arial" font-size="12" x="2064" y="1051">[precipitation] &lt; [max_precip]</text>
</g>
<g class="gsn_module___templates_safety_case_template_gsn_yaml gsnelem gsnsltn" id="node_sn4">
<title>Sn4</title>
<path class="border" d="M2465,1041 a111,111,0,1,0,222,0 a111,111,0,1,0,-222,0 z" fill-opacity="0" stroke="black" stroke-width="1"/>
<text font-family="Arial" font-size="12" font-weight="bold" x="2480" y="1032">Sn4</text>
<text font-family="Arial" font-size="12" x="2480" y="1051">[min_temp] &lt; [temp] &lt; [max_temp]</text>
</g>
<g class="gsn_module___templates_safety_case_template_gsn_yaml gsnelem gsnsltn" id="node_sn1">
<title>Sn1</title>
<path class="border" d="M2888,1041 a111,111,0,1,0,222,0 a111,111,0,1,0,-222,0 z" fill-opacity="0" stroke="black" stroke-width="1"/>
<text font-family="Arial" font-size="12" font-weight="bold" x="2903" y="1032">Sn1</text>
<text font-family="Arial" font-size="12" x="2903" y="1051">[wind_speed] &lt; [max_wind_speed]</text>
</g>
<path class="gsnedge gsninctxt" d="M1144,43 C1174,43,1154,43,1174,43" fill-opacity="0" marker-end="url(#incontextof_arrow)" stroke="black" stroke-width="1"/>
<path class="gsnedge gsninspby" d="M1014,66 C1014,96,1014,76,1014,96" fill-opacity="0" marker-end="url(#supportedby_arrow)" stroke="black" stroke-width="1"/>
<path class="gsnedge gsninspby" d="M2576,750 C2576,780,2576,900,2576,920" fill-opacity="0" marker-end="url(#supportedby_arrow)" stroke="black" stroke-width="1"/>
<path class="gsnedge gsninspby" d="M155,413 C155,443,155,426,155,446" fill-opacity="0" marker-end="url(#supportedby_arrow)" stroke="black" stroke-width="1"/>
<path class="gsnedge gsninspby" d="M1294,750 C1294,780,1294,883,1294,903" fill-opacity="0" marker-end="url(#supportedby_arrow)" stroke="black" stroke-width="1"/>
<path class="gsnedge gsninspby" d="M875,750 C875,780,875,760,875,780" fill-opacity="0" marker-end="url(#supportedby_arrow)" stroke="black" stroke-width="1"/>
<path class="gsnedge gsninspby" d="M500,750 C500,780,327,807,327,827" fill-opacity="0" marker-end="url(#supportedby_arrow)" stroke="black" stroke-width="1"/>
<path class="gsnedge gsninspby" d="M155,750 C155,780,327,807,327,827" fill-opacity="0" marker-end="url(#supportedby_arrow)" stroke="black" stroke-width="1"/>
<path class="gsnedge gsninspby" d="M1717,238 C1717,268,1717,248,1717,268" fill-opacity="0" marker-end="url(#supportedby_arrow)" stroke="black" stroke-width="1"/>
<path class="gsnedge gsninspby" d="M311,238 C311,268,311,248,311,268" fill-opacity="0" marker-end="url(#supportedby_arrow)" stroke="black" stroke-width="1"/>
<path class="gsnedge gsninspby" d="M2572,413 C2572,443,2572,507,2572,527" fill-opacity="0" marker-end="url(#supportedby_arrow)" stroke="black" stroke-width="1"/>
<path class="gsnedge gsninspby" d="M1357,413 C1357,443,1357,507,1357,527" fill-opacity="0" marker-end="url(#supportedby_arrow)" stroke="black" stroke-width="1"/>
<path class="gsnedge gsninspby" d="M2999,750 C2999,780,2999,900,2999,920" fill-opacity="0" marker-end="url(#supportedby_arrow)" stroke="black" stroke-width="1"/>
<path class="gsnedge gsninspby" d="M2146,750 C2146,780,2146,914,2146,934" fill-opacity="0" marker-end="url(#supportedby_arrow)" stroke="black" stroke-width="1"/>
<path class="gsnedge gsninspby" d="M1705,750 C1705,780,1705,921,1705,941" fill-opacity="0" marker-end="url(#supportedby_arrow)" stroke="black" stroke-width="1"/>
<path class="gsnedge gsninspby" d="M1014,152 C1014,182,1717,162,1717,182" fill-opacity="0" marker-end="url(#supportedby_arrow)" stroke="black" stroke-width="1"/>
<path class="gsnedge gsninspby" d="M1014,152 C1014,182,311,162,311,182" fill-opacity="0" marker-end="url(#supportedby_arrow)" stroke="black" stroke-width="1"/>
<path class="gsnedge gsninspby" d="M1717,324 C1717,354,2572,337,2572,357" fill-opacity="0" marker-end="url(#supportedby_arrow)" stroke="black" stroke-width="1"/>
<path class="gsnedge gsninspby" d="M1717,324 C1717,354,1357,337,1357,357" fill-opacity="0" marker-end="url(#supportedby_arrow)" stroke="black" stroke-width="1"/>
<path class="gsnedge gsninspby" d="M1717,324 C1717,354,862,334,862,354" fill-opacity="0" marker-end="url(#supportedby_arrow)" stroke="black" stroke-width="1"/>
<path class="gsnedge gsninspby" d="M311,324 C311,354,155,337,155,357" fill-opacity="0" marker-end="url(#supportedby_arrow)" stroke="black" stroke-width="1"/>
<path class="gsnedge gsninspby" d="M311,324 C311,354,467,334,467,354" fill-opacity="0" marker-end="url(#supportedby_arrow)" stroke="black" stroke-width="1"/>
<path class="gsnedge gsninspby" d="M2572,583 C2572,613,2999,674,2999,694" fill-opacity="0" marker-end="url(#supportedby_arrow)" stroke="black" stroke-width="1"/>
<path class="gsnedge gsninspby" d="M2572,583 C2572,613,2146,674,2146,694" fill-opacity="0" marker-end="url(#supportedby_arrow)" stroke="black" stroke-width="1"/>
<path class="gsnedge gsninspby" d="M2572,583 C2572,613,1705,674,1705,694" fill-opacity="0" marker-end="url(#supportedby_arrow)" stroke="black" stroke-width="1"/>
<path class="gsnedge gsninspby" d="M2572,583 C2572,613,2576,674,2576,694" fill-opacity="0" marker-end="url(#supportedby_arrow)" stroke="black" stroke-width="1"/>
<path class="gsnedge gsninspby" d="M1357,583 C1357,613,1705,674,1705,694" fill-opacity="0" marker-end="url(#supportedby_arrow)" stroke="black" stroke-width="1"/>
<path class="gsnedge gsninspby" d="M1357,583 C1357,613,1294,674,1294,694" fill-opacity="0" marker-end="url(#supportedby_arrow)" stroke="black" stroke-width="1"/>
<path class="gsnedge gsninspby" d="M1357,583 C1357,613,875,674,875,694" fill-opacity="0" marker-end="url(#supportedby_arrow)" stroke="black" stroke-width="1"/>
<path class="gsnedge gsninspby" d="M1357,583 C1357,613,500,674,500,694" fill-opacity="0" marker-end="url(#supportedby_arrow)" stroke="black" stroke-width="1"/>
<path class="gsnedge gsninspby" d="M1357,583 C1357,613,155,674,155,694" fill-opacity="0" marker-end="url(#supportedby_arrow)" stroke="black" stroke-width="1"/>
<g class="gsnmodule" id="node_gsn_module">
<title>Module Information</title>
<text font-family="Arial" font-size="12" x="3110" y="1351">Module: __templates_safety_case_template_gsn_yaml</text>
<text font-family="Arial" font-size="12" x="3110" y="1365">Generated on: 2024-10-22T02:46:27.015735200Z</text>
</g>
</svg>