<?xml version="1.0" encoding="UTF-8"?>
<svg class="gsndiagram" viewBox="0 0 3258 739" xmlns="http://www.w3.org/2000/svg">
<symbol id="module_icon">
<rect fill="lightgrey" height="5" stroke="black" stroke-width="1" width="10" x="0" y="0"/>
<rect fill="lightgrey" height="10" stroke="black" stroke-width="1" width="20" x="0" y="5"/>
</symbol>
<symbol id="acp">
<rect fill="black" height="10" stroke="black" stroke-width="1" width="10" x="0" y="0"/>
</symbol>
<marker id="composite_arrow" markerHeight="9" markerUnits="userSpaceOnUse" markerWidth="10" orient="auto-start-reverse" refX="0" refY="4.5">
<polyline fill-opacity="0" points="0 0, 6 4.5, 0 9" stroke="black" stroke-width="1"/>
<polyline fill-opacity="0" points="4 0, 10 4.5, 4 9" stroke="black" stroke-width="1"/>
<polyline fill-opacity="0" points="0 4.5, 10 4.5" stroke="black" stroke-width="1"/>
</marker>
<marker id="supportedby_arrow" markerHeight="9" markerUnits="userSpaceOnUse" markerWidth="10" orient="auto-start-reverse" refX="0" refY="4.5">
<polyline fill="black" points="0 0, 10 4.5, 0 9"/>
</marker>
<marker id="incontextof_arrow" markerHeight="9" markerUnits="userSpaceOnUse" markerWidth="10" orient="auto-start-reverse" refX="0" refY="4.5">
<polyline fill-opacity="0" points="0 0, 10 4.5, 0 9, 0 0" stroke="black" stroke-width="1"/>
</marker>
<g class="gsn_module_suas_gsn_yaml gsnelem gsngoal" id="node_g1">
<title>G1</title>
<path class="border" d="M1751,20 L1883,20 L1883,66 L1751,66 z" fill-opacity="0" stroke="black" stroke-width="1"/>
<text font-family="Arial" font-size="12" font-weight="bold" x="1758" y="39">G1</text>
<text font-family="Arial" font-size="12" x="1758" y="58">sUAS_Characteristics</text>
</g>
<g class="gsn_module_suas_gsn_yaml gsnelem gsngoal" id="node_g2">
<title>G2</title>
<path class="border" d="M787,109 L891,109 L891,155 L787,155 z" fill-opacity="0" stroke="black" stroke-width="1"/>
<text font-family="Arial" font-size="12" font-weight="bold" x="794" y="128">G2</text>
<text font-family="Arial" font-size="12" x="794" y="147">Pilot</text>
</g>
<g class="gsn_module_suas_gsn_yaml gsnelem gsnctxt" id="node_c1">
<title>C1</title>
<path class="border" d="M1057,109 L1161,109 C1171,109,1171,155,1161,155 L1057,155 C1047,155,1047,109,1057,109" fill-opacity="0" stroke="black" stroke-width="1"/>
<text font-family="Arial" font-size="12" font-weight="bold" x="1064" y="128">C1</text>
<text font-family="Arial" font-size="12" x="1064" y="147">Sparse</text>
</g>
<g class="gsn_module_suas_gsn_yaml gsnelem gsngoal" id="node_g3">
<title>G3</title>
<path class="border" d="M1211,109 L1315,109 L1315,155 L1211,155 z" fill-opacity="0" stroke="black" stroke-width="1"/>
<text font-family="Arial" font-size="12" font-weight="bold" x="1218" y="128">G3</text>
<text font-family="Arial" font-size="12" x="1218" y="147">Airspace</text>
</g>
<g class="gsn_module_suas_gsn_yaml gsnelem gsnctxt" id="node_c2">
<title>C2</title>
<path class="border" d="M1365,109 L1469,109 C1479,109,1479,155,1469,155 L1365,155 C1355,155,1355,109,1365,109" fill-opacity="0" stroke="black" stroke-width="1"/>
<text font-family="Arial" font-size="12" font-weight="bold" x="1372" y="128">C2</text>
<text font-family="Arial" font-size="12" x="1372" y="147">Congested</text>
</g>
<g class="gsn_module_suas_gsn_yaml gsnelem gsngoal" id="node_g4">
<title>G4</title>
<path class="border" d="M1519,109 L1623,109 L1623,155 L1519,155 z" fill-opacity="0" stroke="black" stroke-width="1"/>
<text font-family="Arial" font-size="12" font-weight="bold" x="1526" y="128">G4</text>
<text font-family="Arial" font-size="12" x="1526" y="147">Mission</text>
</g>
<g class="gsn_module_suas_gsn_yaml gsnelem gsngoal" id="node_g5">
<title>G5</title>
<path class="border" d="M2027,109 L2131,109 L2131,155 L2027,155 z" fill-opacity="0" stroke="black" stroke-width="1"/>
<text font-family="Arial" font-size="12" font-weight="bold" x="2034" y="128">G5</text>
<text font-family="Arial" font-size="12" x="2034" y="147">Vehicle</text>
</g>
<g class="gsn_module_suas_gsn_yaml gsnelem gsngoal gsn_undeveloped" id="node_g6">
<title>G6</title>
<path class="border" d="M2171,106 L2275,106 L2275,158 L2171,158 z" fill-opacity="0" stroke="black" stroke-width="1"/>
<text font-family="Arial" font-size="12" font-weight="bold" x="2178" y="125">G6</text>
<text font-family="Arial" font-size="12" x="2178" y="144">Organization</text>
<path d="M2223,158 l5,5 l-5,5 l-5,-5 z" fill-opacity="0" stroke="black" stroke-width="1"/>
</g>
<g class="gsn_module_suas_gsn_yaml gsnelem gsngoal gsn_undeveloped" id="node_g7">
<title>G7</title>
<path class="border" d="M2315,106 L2419,106 L2419,158 L2315,158 z" fill-opacity="0" stroke="black" stroke-width="1"/>
<text font-family="Arial" font-size="12" font-weight="bold" x="2322" y="125">G7</text>
<text font-family="Arial" font-size="12" x="2322" y="144">Regulations</text>
<path d="M2367,158 l5,5 l-5,5 l-5,-5 z" fill-opacity="0" stroke="black" stroke-width="1"/>
</g>
<g class="gsn_module_suas_gsn_yaml gsnelem gsngoal" id="node_g8">
<title>G8</title>
<path class="border" d="M2744,109 L2848,109 L2848,155 L2744,155 z" fill-opacity="0" stroke="black" stroke-width="1"/>
<text font-family="Arial" font-size="12" font-weight="bold" x="2751" y="128">G8</text>
<text font-family="Arial" font-size="12" x="2751" y="147">Weather</text>
</g>
<g class="gsn_module_suas_gsn_yaml gsnelem gsngoal" id="node_g9">
<title>G9</title>
<path class="border" d="M495,235 L599,235 L599,281 L495,281 z" fill-opacity="0" stroke="black" stroke-width="1"/>
<text font-family="Arial" font-size="12" font-weight="bold" x="502" y="254">G9</text>
<text font-family="Arial" font-size="12" x="502" y="273">Training</text>
</g>
<g class="gsn_module_suas_gsn_yaml gsnelem gsnsltn" id="node_sn1">
<title>Sn1</title>
<path class="border" d="M639,258 a60,60,0,1,0,120,0 a60,60,0,1,0,-120,0 z" fill-opacity="0" stroke="black" stroke-width="1"/>
<text font-family="Arial" font-size="12" font-weight="bold" x="656" y="249">Sn1</text>
<text font-family="Arial" font-size="12" x="656" y="268">Incident_History</text>
</g>
<g class="gsn_module_suas_gsn_yaml gsnelem gsngoal" id="node_g10">
<title>G10</title>
<path class="border" d="M1080,235 L1184,235 L1184,281 L1080,281 z" fill-opacity="0" stroke="black" stroke-width="1"/>
<text font-family="Arial" font-size="12" font-weight="bold" x="1087" y="254">G10</text>
<text font-family="Arial" font-size="12" x="1087" y="273">Certifications</text>
</g>
<g class="gsn_module_suas_gsn_yaml gsnelem gsnsltn" id="node_sn13">
<title>Sn13</title>
<path class="border" d="M1224,258 a39,39,0,1,0,78,0 a39,39,0,1,0,-78,0 z" fill-opacity="0" stroke="black" stroke-width="1"/>
<text font-family="Arial" font-size="12" font-weight="bold" x="1243" y="249">Sn13</text>
<text font-family="Arial" font-size="12" x="1243" y="268">Humans</text>
</g>
<g class="gsn_module_suas_gsn_yaml gsnelem gsnstgy" id="node_s4">
<title>S4</title>
<path class="border" d="M1511,235 L1645,235 L1631,281 L1497,281 z" fill-opacity="0" stroke="black" stroke-width="1"/>
<text font-family="Arial" font-size="12" font-weight="bold" x="1519" y="254">S4</text>
<text font-family="Arial" font-size="12" x="1515" y="273">Purpose</text>
</g>
<g class="gsn_module_suas_gsn_yaml gsnelem gsnstgy" id="node_s5">
<title>S5</title>
<path class="border" d="M1871,235 L2005,235 L1991,281 L1857,281 z" fill-opacity="0" stroke="black" stroke-width="1"/>
<text font-family="Arial" font-size="12" font-weight="bold" x="1879" y="254">S5</text>
<text font-family="Arial" font-size="12" x="1875" y="273">Hardware</text>
</g>
<g class="gsn_module_suas_gsn_yaml gsnelem gsnstgy" id="node_s6">
<title>S6</title>
<path class="border" d="M2167,235 L2301,235 L2287,281 L2153,281 z" fill-opacity="0" stroke="black" stroke-width="1"/>
<text font-family="Arial" font-size="12" font-weight="bold" x="2175" y="254">S6</text>
<text font-family="Arial" font-size="12" x="2171" y="273">BatteryReserve</text>
</g>
<g class="gsn_module_suas_gsn_yaml gsnelem gsnstgy" id="node_s7">
<title>S7</title>
<path class="border" d="M2408,235 L2542,235 L2528,281 L2394,281 z" fill-opacity="0" stroke="black" stroke-width="1"/>
<text font-family="Arial" font-size="12" font-weight="bold" x="2416" y="254">S7</text>
<text font-family="Arial" font-size="12" x="2412" y="273">Wind_Gusts</text>
</g>
<g class="gsn_module_suas_gsn_yaml gsnelem gsnstgy" id="node_s8">
<title>S8</title>
<path class="border" d="M2628,235 L2762,235 L2748,281 L2614,281 z" fill-opacity="0" stroke="black" stroke-width="1"/>
<text font-family="Arial" font-size="12" font-weight="bold" x="2636" y="254">S8</text>
<text font-family="Arial" font-size="12" x="2632" y="273">PoorVisibility</text>
</g>
<g class="gsn_module_suas_gsn_yaml gsnelem gsnstgy" id="node_s9">
<title>S9</title>
<path class="border" d="M2846,235 L2980,235 L2966,281 L2832,281 z" fill-opacity="0" stroke="black" stroke-width="1"/>
<text font-family="Arial" font-size="12" font-weight="bold" x="2854" y="254">S9</text>
<text font-family="Arial" font-size="12" x="2850" y="273">Precipitation</text>
</g>
<g class="gsn_module_suas_gsn_yaml gsnelem gsnstgy" id="node_s10">
<title>S10</title>
<path class="border" d="M3064,235 L3198,235 L3184,281 L3050,281 z" fill-opacity="0" stroke="black" stroke-width="1"/>
<text font-family="Arial" font-size="12" font-weight="bold" x="3072" y="254">S10</text>
<text font-family="Arial" font-size="12" x="3068" y="273">FreezingTemps</text>
</g>
<g class="gsn_module_suas_gsn_yaml gsnelem gsnstgy" id="node_s1">
<title>S1</title>
<path class="border" d="M172,390 L306,390 L292,436 L158,436 z" fill-opacity="0" stroke="black" stroke-width="1"/>
<text font-family="Arial" font-size="12" font-weight="bold" x="180" y="409">S1</text>
<text font-family="Arial" font-size="12" x="176" y="428">Flight_Hours</text>
</g>
<g class="gsn_module_suas_gsn_yaml gsnelem gsnstgy" id="node_s2">
<title>S2</title>
<path class="border" d="M523,390 L657,390 L643,436 L509,436 z" fill-opacity="0" stroke="black" stroke-width="1"/>
<text font-family="Arial" font-size="12" font-weight="bold" x="531" y="409">S2</text>
<text font-family="Arial" font-size="12" x="527" y="428">Simulation_Hours</text>
</g>
<g class="gsn_module_suas_gsn_yaml gsnelem gsnstgy" id="node_s3">
<title>S3</title>
<path class="border" d="M803,390 L937,390 L923,436 L789,436 z" fill-opacity="0" stroke="black" stroke-width="1"/>
<text font-family="Arial" font-size="12" font-weight="bold" x="811" y="409">S3</text>
<text font-family="Arial" font-size="12" x="807" y="428">Adverse_Experience</text>
</g>
<g class="gsn_module_suas_gsn_yaml gsnelem gsnsltn" id="node_sn10">
<title>Sn10</title>
<path class="border" d="M970,413 a40,40,0,1,0,80,0 a40,40,0,1,0,-80,0 z" fill-opacity="0" stroke="black" stroke-width="1"/>
<text font-family="Arial" font-size="12" font-weight="bold" x="990" y="404">Sn10</text>
<text font-family="Arial" font-size="12" x="990" y="423">CertOne</text>
</g>
<g class="gsn_module_suas_gsn_yaml gsnelem gsnsltn" id="node_sn11">
<title>Sn11</title>
<path class="border" d="M1090,413 a40,40,0,1,0,80,0 a40,40,0,1,0,-80,0 z" fill-opacity="0" stroke="black" stroke-width="1"/>
<text font-family="Arial" font-size="12" font-weight="bold" x="1110" y="404">Sn11</text>
<text font-family="Arial" font-size="12" x="1110" y="423">CertTwo</text>
</g>
<g class="gsn_module_suas_gsn_yaml gsnelem gsnsltn" id="node_sn12">
<title>Sn12</title>
<path class="border" d="M1210,413 a44,44,0,1,0,88,0 a44,44,0,1,0,-88,0 z" fill-opacity="0" stroke="black" stroke-width="1"/>
<text font-family="Arial" font-size="12" font-weight="bold" x="1229" y="404">Sn12</text>
<text font-family="Arial" font-size="12" x="1229" y="423">CertThree</text>
</g>
<g class="gsn_module_suas_gsn_yaml gsnelem gsnsltn" id="node_sn14">
<title>Sn14</title>
<path class="border" d="M1387,413 a46,46,0,1,0,92,0 a46,46,0,1,0,-92,0 z" fill-opacity="0" stroke="black" stroke-width="1"/>
<text font-family="Arial" font-size="12" font-weight="bold" x="1406" y="404">Sn14</text>
<text font-family="Arial" font-size="12" x="1406" y="423">Recreation</text>
</g>
<g class="gsn_module_suas_gsn_yaml gsnelem gsnsltn" id="node_sn15">
<title>Sn15</title>
<path class="border" d="M1519,413 a55,55,0,1,0,110,0 a55,55,0,1,0,-110,0 z" fill-opacity="0" stroke="black" stroke-width="1"/>
<text font-family="Arial" font-size="12" font-weight="bold" x="1536" y="404">Sn15</text>
<text font-family="Arial" font-size="12" x="1536" y="423">SearchRescue</text>
</g>
<g class="gsn_module_suas_gsn_yaml gsnelem gsnsltn" id="node_sn16">
<title>Sn16</title>
<path class="border" d="M1669,413 a40,40,0,1,0,80,0 a40,40,0,1,0,-80,0 z" fill-opacity="0" stroke="black" stroke-width="1"/>
<text font-family="Arial" font-size="12" font-weight="bold" x="1689" y="404">Sn16</text>
<text font-family="Arial" font-size="12" x="1689" y="423">Delivery</text>
</g>
<g class="gsn_module_suas_gsn_yaml gsnelem gsnsltn" id="node_sn17">
<title>Sn17</title>
<path class="border" d="M1789,413 a34,34,0,1,0,68,0 a34,34,0,1,0,-68,0 z" fill-opacity="0" stroke="black" stroke-width="1"/>
<text font-family="Arial" font-size="12" font-weight="bold" x="1811" y="404">Sn17</text>
<text font-family="Arial" font-size="12" x="1811" y="423">x</text>
</g>
<g class="gsn_module_suas_gsn_yaml gsnelem gsnsltn" id="node_sn18">
<title>Sn18</title>
<path class="border" d="M1897,413 a34,34,0,1,0,68,0 a34,34,0,1,0,-68,0 z" fill-opacity="0" stroke="black" stroke-width="1"/>
<text font-family="Arial" font-size="12" font-weight="bold" x="1919" y="404">Sn18</text>
<text font-family="Arial" font-size="12" x="1919" y="423">y</text>
</g>
<g class="gsn_module_suas_gsn_yaml gsnelem gsnsltn" id="node_sn19">
<title>Sn19</title>
<path class="border" d="M2005,413 a34,34,0,1,0,68,0 a34,34,0,1,0,-68,0 z" fill-opacity="0" stroke="black" stroke-width="1"/>
<text font-family="Arial" font-size="12" font-weight="bold" x="2027" y="404">Sn19</text>
<text font-family="Arial" font-size="12" x="2027" y="423">z</text>
</g>
<g class="gsn_module_suas_gsn_yaml gsnelem gsnsltn" id="node_sn20">
<title>Sn20</title>
<path class="border" d="M2113,413 a48,48,0,1,0,96,0 a48,48,0,1,0,-96,0 z" fill-opacity="0" stroke="black" stroke-width="1"/>
<text font-family="Arial" font-size="12" font-weight="bold" x="2131" y="404">Sn20</text>
<text font-family="Arial" font-size="12" x="2131" y="423">Insufficient</text>
</g>
<g class="gsn_module_suas_gsn_yaml gsnelem gsnsltn" id="node_sn21">
<title>Sn21</title>
<path class="border" d="M2249,413 a44,44,0,1,0,88,0 a44,44,0,1,0,-88,0 z" fill-opacity="0" stroke="black" stroke-width="1"/>
<text font-family="Arial" font-size="12" font-weight="bold" x="2268" y="404">Sn21</text>
<text font-family="Arial" font-size="12" x="2268" y="423">Sufficient</text>
</g>
<g class="gsn_module_suas_gsn_yaml gsnelem gsnsltn" id="node_sn22">
<title>Sn22</title>
<path class="border" d="M2377,413 a36,36,0,1,0,72,0 a36,36,0,1,0,-72,0 z" fill-opacity="0" stroke="black" stroke-width="1"/>
<text font-family="Arial" font-size="12" font-weight="bold" x="2398" y="404">Sn22</text>
<text font-family="Arial" font-size="12" x="2398" y="423">w_Yes</text>
</g>
<g class="gsn_module_suas_gsn_yaml gsnelem gsnsltn" id="node_sn23">
<title>Sn23</title>
<path class="border" d="M2489,413 a34,34,0,1,0,68,0 a34,34,0,1,0,-68,0 z" fill-opacity="0" stroke="black" stroke-width="1"/>
<text font-family="Arial" font-size="12" font-weight="bold" x="2511" y="404">Sn23</text>
<text font-family="Arial" font-size="12" x="2511" y="423">w_No</text>
</g>
<g class="gsn_module_suas_gsn_yaml gsnelem gsnsltn" id="node_sn24">
<title>Sn24</title>
<path class="border" d="M2597,413 a36,36,0,1,0,72,0 a36,36,0,1,0,-72,0 z" fill-opacity="0" stroke="black" stroke-width="1"/>
<text font-family="Arial" font-size="12" font-weight="bold" x="2618" y="404">Sn24</text>
<text font-family="Arial" font-size="12" x="2618" y="423">P_Yes</text>
</g>
<g class="gsn_module_suas_gsn_yaml gsnelem gsnsltn" id="node_sn25">
<title>Sn25</title>
<path class="border" d="M2709,413 a34,34,0,1,0,68,0 a34,34,0,1,0,-68,0 z" fill-opacity="0" stroke="black" stroke-width="1"/>
<text font-family="Arial" font-size="12" font-weight="bold" x="2731" y="404">Sn25</text>
<text font-family="Arial" font-size="12" x="2731" y="423">p_No</text>
</g>
<g class="gsn_module_suas_gsn_yaml gsnelem gsnsltn" id="node_sn26">
<title>Sn26</title>
<path class="border" d="M2817,413 a35,35,0,1,0,70,0 a35,35,0,1,0,-70,0 z" fill-opacity="0" stroke="black" stroke-width="1"/>
<text font-family="Arial" font-size="12" font-weight="bold" x="2839" y="404">Sn26</text>
<text font-family="Arial" font-size="12" x="2839" y="423">r_Yes</text>
</g>
<g class="gsn_module_suas_gsn_yaml gsnelem gsnsltn" id="node_sn27">
<title>Sn27</title>
<path class="border" d="M2927,413 a34,34,0,1,0,68,0 a34,34,0,1,0,-68,0 z" fill-opacity="0" stroke="black" stroke-width="1"/>
<text font-family="Arial" font-size="12" font-weight="bold" x="2949" y="404">Sn27</text>
<text font-family="Arial" font-size="12" x="2949" y="423">r_No</text>
</g>
<g class="gsn_module_suas_gsn_yaml gsnelem gsnsltn" id="node_sn28">
<title>Sn28</title>
<path class="border" d="M3035,413 a35,35,0,1,0,70,0 a35,35,0,1,0,-70,0 z" fill-opacity="0" stroke="black" stroke-width="1"/>
<text font-family="Arial" font-size="12" font-weight="bold" x="3056" y="404">Sn28</text>
<text font-family="Arial" font-size="12" x="3056" y="423">F_Yes</text>
</g>
<g class="gsn_module_suas_gsn_yaml gsnelem gsnsltn" id="node_sn29">
<title>Sn29</title>
<path class="border" d="M3145,413 a34,34,0,1,0,68,0 a34,34,0,1,0,-68,0 z" fill-opacity="0" stroke="black" stroke-width="1"/>
<text font-family="Arial" font-size="12" font-weight="bold" x="3167" y="404">Sn29</text>
<text font-family="Arial" font-size="12" x="3167" y="423">F_No</text>
</g>
<g class="gsn_module_suas_gsn_yaml gsnelem gsnsltn" id="node_sn2">
<title>Sn2</title>
<path class="border" d="M20,579 a49,49,0,1,0,98,0 a49,49,0,1,0,-98,0 z" fill-opacity="0" stroke="black" stroke-width="1"/>
<text font-family="Arial" font-size="12" font-weight="bold" x="38" y="570">Sn2</text>
<text font-family="Arial" font-size="12" x="38" y="589">LessThan_N</text>
</g>
<g class="gsn_module_suas_gsn_yaml gsnelem gsnsltn" id="node_sn3">
<title>Sn3</title>
<path class="border" d="M158,579 a71,71,0,1,0,142,0 a71,71,0,1,0,-142,0 z" fill-opacity="0" stroke="black" stroke-width="1"/>
<text font-family="Arial" font-size="12" font-weight="bold" x="174" y="570">Sn3</text>
<text font-family="Arial" font-size="12" x="174" y="589">BetweenNplus1AndM</text>
</g>
<g class="gsn_module_suas_gsn_yaml gsnelem gsnsltn" id="node_sn4">
<title>Sn4</title>
<path class="border" d="M340,579 a56,56,0,1,0,112,0 a56,56,0,1,0,-112,0 z" fill-opacity="0" stroke="black" stroke-width="1"/>
<text font-family="Arial" font-size="12" font-weight="bold" x="357" y="570">Sn4</text>
<text font-family="Arial" font-size="12" x="357" y="589">GreaterMplus1</text>
</g>
<g class="gsn_module_suas_gsn_yaml gsnelem gsnsltn" id="node_sn5">
<title>Sn5</title>
<path class="border" d="M492,579 a34,34,0,1,0,68,0 a34,34,0,1,0,-68,0 z" fill-opacity="0" stroke="black" stroke-width="1"/>
<text font-family="Arial" font-size="12" font-weight="bold" x="515" y="570">Sn5</text>
<text font-family="Arial" font-size="12" x="515" y="589">None</text>
</g>
<g class="gsn_module_suas_gsn_yaml gsnelem gsnsltn" id="node_sn6">
<title>Sn6</title>
<path class="border" d="M600,579 a41,41,0,1,0,82,0 a41,41,0,1,0,-82,0 z" fill-opacity="0" stroke="black" stroke-width="1"/>
<text font-family="Arial" font-size="12" font-weight="bold" x="619" y="570">Sn6</text>
<text font-family="Arial" font-size="12" x="619" y="589">AtLeastM</text>
</g>
<g class="gsn_module_suas_gsn_yaml gsnelem gsnsltn" id="node_sn7">
<title>Sn7</title>
<path class="border" d="M722,579 a33,33,0,1,0,66,0 a33,33,0,1,0,-66,0 z" fill-opacity="0" stroke="black" stroke-width="1"/>
<text font-family="Arial" font-size="12" font-weight="bold" x="745" y="570">Sn7</text>
<text font-family="Arial" font-size="12" x="745" y="589">none</text>
</g>
<g class="gsn_module_suas_gsn_yaml gsnelem gsnsltn" id="node_sn8">
<title>Sn8</title>
<path class="border" d="M828,579 a32,32,0,1,0,64,0 a32,32,0,1,0,-64,0 z" fill-opacity="0" stroke="black" stroke-width="1"/>
<text font-family="Arial" font-size="12" font-weight="bold" x="852" y="570">Sn8</text>
<text font-family="Arial" font-size="12" x="852" y="589">one</text>
</g>
<g class="gsn_module_suas_gsn_yaml gsnelem gsnsltn" id="node_sn9">
<title>Sn9</title>
<path class="border" d="M932,579 a39,39,0,1,0,78,0 a39,39,0,1,0,-78,0 z" fill-opacity="0" stroke="black" stroke-width="1"/>
<text font-family="Arial" font-size="12" font-weight="bold" x="952" y="570">Sn9</text>
<text font-family="Arial" font-size="12" x="952" y="589">twoPlus</text>
</g>
<path class="gsnedge gsninspby" d="M1817,66 C1817,96,839,79,839,99" fill-opacity="0" marker-end="url(#supportedby_arrow)" stroke="black" stroke-width="1"/>
<path class="gsnedge gsninspby" d="M1817,66 C1817,96,1263,79,1263,99" fill-opacity="0" marker-end="url(#supportedby_arrow)" stroke="black" stroke-width="1"/>
<path class="gsnedge gsninspby" d="M1817,66 C1817,96,1571,79,1571,99" fill-opacity="0" marker-end="url(#supportedby_arrow)" stroke="black" stroke-width="1"/>
<path class="gsnedge gsninspby" d="M1817,66 C1817,96,2079,79,2079,99" fill-opacity="0" marker-end="url(#supportedby_arrow)" stroke="black" stroke-width="1"/>
<path class="gsnedge gsninspby" d="M1817,66 C1817,96,2223,76,2223,96" fill-opacity="0" marker-end="url(#supportedby_arrow)" stroke="black" stroke-width="1"/>
<path class="gsnedge gsninspby" d="M1817,66 C1817,96,2367,76,2367,96" fill-opacity="0" marker-end="url(#supportedby_arrow)" stroke="black" stroke-width="1"/>
<path class="gsnedge gsninspby" d="M1817,66 C1817,96,2796,79,2796,99" fill-opacity="0" marker-end="url(#supportedby_arrow)" stroke="black" stroke-width="1"/>
<path class="gsnedge gsninspby" d="M1132,281 C1132,311,1010,343,1010,363" fill-opacity="0" marker-end="url(#supportedby_arrow)" stroke="black" stroke-width="1"/>
<path class="gsnedge gsninspby" d="M1132,281 C1132,311,1130,343,1130,363" fill-opacity="0" marker-end="url(#supportedby_arrow)" stroke="black" stroke-width="1"/>
<path class="gsnedge gsninspby" d="M1132,281 C1132,311,1254,339,1254,359" fill-opacity="0" marker-end="url(#supportedby_arrow)" stroke="black" stroke-width="1"/>
<path class="gsnedge gsninspby" d="M839,155 C839,185,547,205,547,225" fill-opacity="0" marker-end="url(#supportedby_arrow)" stroke="black" stroke-width="1"/>
<path class="gsnedge gsninspby" d="M839,155 C839,185,699,168,699,188" fill-opacity="0" marker-end="url(#supportedby_arrow)" stroke="black" stroke-width="1"/>
<path class="gsnedge gsninspby" d="M839,155 C839,185,1132,205,1132,225" fill-opacity="0" marker-end="url(#supportedby_arrow)" stroke="black" stroke-width="1"/>
<path class="gsnedge gsninctxt" d="M1211,132 C1181,132,1201,132,1181,132" fill-opacity="0" marker-end="url(#incontextof_arrow)" stroke="black" stroke-width="1"/>
<path class="gsnedge gsninctxt" d="M1315,132 C1345,132,1325,132,1345,132" fill-opacity="0" marker-end="url(#incontextof_arrow)" stroke="black" stroke-width="1"/>
<path class="gsnedge gsninspby" d="M1263,155 C1263,185,1263,189,1263,209" fill-opacity="0" marker-end="url(#supportedby_arrow)" stroke="black" stroke-width="1"/>
<path class="gsnedge gsninspby" d="M1571,155 C1571,185,1571,205,1571,225" fill-opacity="0" marker-end="url(#supportedby_arrow)" stroke="black" stroke-width="1"/>
<path class="gsnedge gsninspby" d="M2079,155 C2079,185,1931,205,1931,225" fill-opacity="0" marker-end="url(#supportedby_arrow)" stroke="black" stroke-width="1"/>
<path class="gsnedge gsninspby" d="M2079,155 C2079,185,2227,205,2227,225" fill-opacity="0" marker-end="url(#supportedby_arrow)" stroke="black" stroke-width="1"/>
<path class="gsnedge gsninspby" d="M2796,155 C2796,185,2468,205,2468,225" fill-opacity="0" marker-end="url(#supportedby_arrow)" stroke="black" stroke-width="1"/>
<path class="gsnedge gsninspby" d="M2796,155 C2796,185,2688,205,2688,225" fill-opacity="0" marker-end="url(#supportedby_arrow)" stroke="black" stroke-width="1"/>
<path class="gsnedge gsninspby" d="M2796,155 C2796,185,2906,205,2906,225" fill-opacity="0" marker-end="url(#supportedby_arrow)" stroke="black" stroke-width="1"/>
<path class="gsnedge gsninspby" d="M2796,155 C2796,185,3124,205,3124,225" fill-opacity="0" marker-end="url(#supportedby_arrow)" stroke="black" stroke-width="1"/>
<path class="gsnedge gsninspby" d="M547,281 C547,311,232,360,232,380" fill-opacity="0" marker-end="url(#supportedby_arrow)" stroke="black" stroke-width="1"/>
<path class="gsnedge gsninspby" d="M547,281 C547,311,583,360,583,380" fill-opacity="0" marker-end="url(#supportedby_arrow)" stroke="black" stroke-width="1"/>
<path class="gsnedge gsninspby" d="M547,281 C547,311,863,360,863,380" fill-opacity="0" marker-end="url(#supportedby_arrow)" stroke="black" stroke-width="1"/>
<path class="gsnedge gsninspby" d="M232,436 C232,466,69,500,69,520" fill-opacity="0" marker-end="url(#supportedby_arrow)" stroke="black" stroke-width="1"/>
<path class="gsnedge gsninspby" d="M232,436 C232,466,229,478,229,498" fill-opacity="0" marker-end="url(#supportedby_arrow)" stroke="black" stroke-width="1"/>
<path class="gsnedge gsninspby" d="M232,436 C232,466,396,493,396,513" fill-opacity="0" marker-end="url(#supportedby_arrow)" stroke="black" stroke-width="1"/>
<path class="gsnedge gsninspby" d="M3124,281 C3124,311,3070,348,3070,368" fill-opacity="0" marker-end="url(#supportedby_arrow)" stroke="black" stroke-width="1"/>
<path class="gsnedge gsninspby" d="M3124,281 C3124,311,3179,349,3179,369" fill-opacity="0" marker-end="url(#supportedby_arrow)" stroke="black" stroke-width="1"/>
<path class="gsnedge gsninspby" d="M583,436 C583,466,526,515,526,535" fill-opacity="0" marker-end="url(#supportedby_arrow)" stroke="black" stroke-width="1"/>
<path class="gsnedge gsninspby" d="M583,436 C583,466,641,508,641,528" fill-opacity="0" marker-end="url(#supportedby_arrow)" stroke="black" stroke-width="1"/>
<path class="gsnedge gsninspby" d="M863,436 C863,466,755,516,755,536" fill-opacity="0" marker-end="url(#supportedby_arrow)" stroke="black" stroke-width="1"/>
<path class="gsnedge gsninspby" d="M863,436 C863,466,860,517,860,537" fill-opacity="0" marker-end="url(#supportedby_arrow)" stroke="black" stroke-width="1"/>
<path class="gsnedge gsninspby" d="M863,436 C863,466,971,510,971,530" fill-opacity="0" marker-end="url(#supportedby_arrow)" stroke="black" stroke-width="1"/>
<path class="gsnedge gsninspby" d="M1571,281 C1571,311,1433,337,1433,357" fill-opacity="0" marker-end="url(#supportedby_arrow)" stroke="black" stroke-width="1"/>
<path class="gsnedge gsninspby" d="M1571,281 C1571,311,1574,328,1574,348" fill-opacity="0" marker-end="url(#supportedby_arrow)" stroke="black" stroke-width="1"/>
<path class="gsnedge gsninspby" d="M1571,281 C1571,311,1709,343,1709,363" fill-opacity="0" marker-end="url(#supportedby_arrow)" stroke="black" stroke-width="1"/>
<path class="gsnedge gsninspby" d="M1931,281 C1931,311,1823,349,1823,369" fill-opacity="0" marker-end="url(#supportedby_arrow)" stroke="black" stroke-width="1"/>
<path class="gsnedge gsninspby" d="M1931,281 C1931,311,1931,349,1931,369" fill-opacity="0" marker-end="url(#supportedby_arrow)" stroke="black" stroke-width="1"/>
<path class="gsnedge gsninspby" d="M1931,281 C1931,311,2039,349,2039,369" fill-opacity="0" marker-end="url(#supportedby_arrow)" stroke="black" stroke-width="1"/>
<path class="gsnedge gsninspby" d="M2227,281 C2227,311,2161,335,2161,355" fill-opacity="0" marker-end="url(#supportedby_arrow)" stroke="black" stroke-width="1"/>
<path class="gsnedge gsninspby" d="M2227,281 C2227,311,2293,339,2293,359" fill-opacity="0" marker-end="url(#supportedby_arrow)" stroke="black" stroke-width="1"/>
<path class="gsnedge gsninspby" d="M2468,281 C2468,311,2413,347,2413,367" fill-opacity="0" marker-end="url(#supportedby_arrow)" stroke="black" stroke-width="1"/>
<path class="gsnedge gsninspby" d="M2468,281 C2468,311,2523,349,2523,369" fill-opacity="0" marker-end="url(#supportedby_arrow)" stroke="black" stroke-width="1"/>
<path class="gsnedge gsninspby" d="M2688,281 C2688,311,2633,347,2633,367" fill-opacity="0" marker-end="url(#supportedby_arrow)" stroke="black" stroke-width="1"/>
<path class="gsnedge gsninspby" d="M2688,281 C2688,311,2743,349,2743,369" fill-opacity="0" marker-end="url(#supportedby_arrow)" stroke="black" stroke-width="1"/>
<path class="gsnedge gsninspby" d="M2906,281 C2906,311,2852,348,2852,368" fill-opacity="0" marker-end="url(#supportedby_arrow)" stroke="black" stroke-width="1"/>
<path class="gsnedge gsninspby" d="M2906,281 C2906,311,2961,349,2961,369" fill-opacity="0" marker-end="url(#supportedby_arrow)" stroke="black" stroke-width="1"/>
<g class="gsnmodule" id="node_gsn_module">
<title>Module Information</title>
<text font-family="Arial" font-size="12" x="2963" y="705">Module: suas_gsn_yaml</text>
<text font-family="Arial" font-size="12" x="2963" y="719">Generated on: 2024-09-18T02:41:25.743487000Z</text>
</g>
</svg>