<svg xmlns="http://www.w3.org/2000/svg" width="1600" height="1200"><line x1="702.1739130434783" y1="50" x2="669.5652173913044" y2="172.22222222222223" stroke="#ccc"></line><line x1="702.1739130434783" y1="50" x2="734.7826086956522" y2="172.22222222222223" stroke="#ccc"></line><line x1="669.5652173913044" y1="172.22222222222223" x2="278.2608695652174" y2="294.44444444444446" stroke="#ccc"></line><line x1="669.5652173913044" y1="172.22222222222223" x2="1060.8695652173915" y2="294.44444444444446" stroke="#ccc"></line><line x1="278.2608695652174" y1="294.44444444444446" x2="278.2608695652174" y2="416.6666666666667" stroke="#ccc"></line><line x1="1060.8695652173915" y1="294.44444444444446" x2="1060.8695652173915" y2="416.6666666666667" stroke="#ccc"></line><line x1="278.2608695652174" y1="416.6666666666667" x2="245.6521739130435" y2="538.8888888888889" stroke="#ccc"></line><line x1="278.2608695652174" y1="416.6666666666667" x2="310.8695652173913" y2="538.8888888888889" stroke="#ccc"></line><line x1="1060.8695652173915" y1="416.6666666666667" x2="636.9565217391305" y2="538.8888888888889" stroke="#ccc"></line><line x1="1060.8695652173915" y1="416.6666666666667" x2="1158.695652173913" y2="538.8888888888889" stroke="#ccc"></line><line x1="1060.8695652173915" y1="416.6666666666667" x2="1484.7826086956522" y2="538.8888888888889" stroke="#ccc"></line><line x1="245.6521739130435" y1="538.8888888888889" x2="245.6521739130435" y2="661.1111111111111" stroke="#ccc"></line><line x1="636.9565217391305" y1="538.8888888888889" x2="636.9565217391305" y2="661.1111111111111" stroke="#ccc"></line><line x1="1158.695652173913" y1="538.8888888888889" x2="1158.695652173913" y2="661.1111111111111" stroke="#ccc"></line><line x1="1484.7826086956522" y1="538.8888888888889" x2="1484.7826086956522" y2="661.1111111111111" stroke="#ccc"></line><line x1="245.6521739130435" y1="661.1111111111111" x2="115.21739130434783" y2="783.3333333333334" stroke="#ccc"></line><line x1="245.6521739130435" y1="661.1111111111111" x2="245.6521739130435" y2="783.3333333333334" stroke="#ccc"></line><line x1="245.6521739130435" y1="661.1111111111111" x2="376.0869565217391" y2="783.3333333333334" stroke="#ccc"></line><line x1="636.9565217391305" y1="661.1111111111111" x2="506.5217391304348" y2="783.3333333333334" stroke="#ccc"></line><line x1="636.9565217391305" y1="661.1111111111111" x2="571.7391304347826" y2="783.3333333333334" stroke="#ccc"></line><line x1="636.9565217391305" y1="661.1111111111111" x2="636.9565217391305" y2="783.3333333333334" stroke="#ccc"></line><line x1="636.9565217391305" y1="661.1111111111111" x2="767.3913043478261" y2="783.3333333333334" stroke="#ccc"></line><line x1="1158.695652173913" y1="661.1111111111111" x2="963.0434782608696" y2="783.3333333333334" stroke="#ccc"></line><line x1="1158.695652173913" y1="661.1111111111111" x2="1093.4782608695652" y2="783.3333333333334" stroke="#ccc"></line><line x1="1158.695652173913" y1="661.1111111111111" x2="1223.913043478261" y2="783.3333333333334" stroke="#ccc"></line><line x1="1158.695652173913" y1="661.1111111111111" x2="1354.3478260869565" y2="783.3333333333334" stroke="#ccc"></line><line x1="1484.7826086956522" y1="661.1111111111111" x2="1484.7826086956522" y2="783.3333333333334" stroke="#ccc"></line><line x1="115.21739130434783" y1="783.3333333333334" x2="115.21739130434783" y2="905.5555555555557" stroke="#ccc"></line><line x1="245.6521739130435" y1="783.3333333333334" x2="245.6521739130435" y2="905.5555555555557" stroke="#ccc"></line><line x1="376.0869565217391" y1="783.3333333333334" x2="376.0869565217391" y2="905.5555555555557" stroke="#ccc"></line><line x1="506.5217391304348" y1="783.3333333333334" x2="506.5217391304348" y2="905.5555555555557" stroke="#ccc"></line><line x1="636.9565217391305" y1="783.3333333333334" x2="636.9565217391305" y2="905.5555555555557" stroke="#ccc"></line><line x1="767.3913043478261" y1="783.3333333333334" x2="767.3913043478261" y2="905.5555555555557" stroke="#ccc"></line><line x1="963.0434782608696" y1="783.3333333333334" x2="963.0434782608696" y2="905.5555555555557" stroke="#ccc"></line><line x1="1093.4782608695652" y1="783.3333333333334" x2="1093.4782608695652" y2="905.5555555555557" stroke="#ccc"></line><line x1="1223.913043478261" y1="783.3333333333334" x2="1223.913043478261" y2="905.5555555555557" stroke="#ccc"></line><line x1="1354.3478260869565" y1="783.3333333333334" x2="1354.3478260869565" y2="905.5555555555557" stroke="#ccc"></line><line x1="1484.7826086956522" y1="783.3333333333334" x2="1484.7826086956522" y2="905.5555555555557" stroke="#ccc"></line><line x1="636.9565217391305" y1="905.5555555555557" x2="506.5217391304348" y2="1027.7777777777778" stroke="#ccc"></line><line x1="636.9565217391305" y1="905.5555555555557" x2="636.9565217391305" y2="1027.7777777777778" stroke="#ccc"></line><line x1="636.9565217391305" y1="905.5555555555557" x2="767.3913043478261" y2="1027.7777777777778" stroke="#ccc"></line><line x1="963.0434782608696" y1="905.5555555555557" x2="897.8260869565217" y2="1027.7777777777778" stroke="#ccc"></line><line x1="963.0434782608696" y1="905.5555555555557" x2="1028.2608695652175" y2="1027.7777777777778" stroke="#ccc"></line><line x1="506.5217391304348" y1="1027.7777777777778" x2="506.5217391304348" y2="1150" stroke="#ccc"></line><line x1="636.9565217391305" y1="1027.7777777777778" x2="636.9565217391305" y2="1150" stroke="#ccc"></line><line x1="767.3913043478261" y1="1027.7777777777778" x2="767.3913043478261" y2="1150" stroke="#ccc"></line><line x1="897.8260869565217" y1="1027.7777777777778" x2="897.8260869565217" y2="1150" stroke="#ccc"></line><line x1="1028.2608695652175" y1="1027.7777777777778" x2="1028.2608695652175" y2="1150" stroke="#ccc"></line><circle cx="702.1739130434783" cy="50" r="10" fill="red"></circle><circle cx="669.5652173913044" cy="172.22222222222223" r="10" fill="red"></circle><circle cx="734.7826086956522" cy="172.22222222222223" r="10" fill="green"></circle><circle cx="278.2608695652174" cy="294.44444444444446" r="10" fill="red"></circle><circle cx="1060.8695652173915" cy="294.44444444444446" r="10" fill="red"></circle><circle cx="278.2608695652174" cy="416.6666666666667" r="10" fill="red"></circle><circle cx="1060.8695652173915" cy="416.6666666666667" r="10" fill="red"></circle><circle cx="245.6521739130435" cy="538.8888888888889" r="10" fill="red"></circle><circle cx="310.8695652173913" cy="538.8888888888889" r="10" fill="green"></circle><circle cx="636.9565217391305" cy="538.8888888888889" r="10" fill="red"></circle><circle cx="1158.695652173913" cy="538.8888888888889" r="10" fill="red"></circle><circle cx="1484.7826086956522" cy="538.8888888888889" r="10" fill="red"></circle><circle cx="245.6521739130435" cy="661.1111111111111" r="10" fill="red"></circle><circle cx="636.9565217391305" cy="661.1111111111111" r="10" fill="red"></circle><circle cx="1158.695652173913" cy="661.1111111111111" r="10" fill="red"></circle><circle cx="1484.7826086956522" cy="661.1111111111111" r="10" fill="red"></circle><circle cx="115.21739130434783" cy="783.3333333333334" r="10" fill="red"></circle><circle cx="245.6521739130435" cy="783.3333333333334" r="10" fill="red"></circle><circle cx="376.0869565217391" cy="783.3333333333334" r="10" fill="red"></circle><circle cx="506.5217391304348" cy="783.3333333333334" r="10" fill="red"></circle><circle cx="571.7391304347826" cy="783.3333333333334" r="10" fill="green"></circle><circle cx="636.9565217391305" cy="783.3333333333334" r="10" fill="red"></circle><circle cx="767.3913043478261" cy="783.3333333333334" r="10" fill="red"></circle><circle cx="963.0434782608696" cy="783.3333333333334" r="10" fill="red"></circle><circle cx="1093.4782608695652" cy="783.3333333333334" r="10" fill="red"></circle><circle cx="1223.913043478261" cy="783.3333333333334" r="10" fill="red"></circle><circle cx="1354.3478260869565" cy="783.3333333333334" r="10" fill="green"></circle><circle cx="1484.7826086956522" cy="783.3333333333334" r="10" fill="red"></circle><circle cx="115.21739130434783" cy="905.5555555555557" r="10" fill="red"></circle><circle cx="245.6521739130435" cy="905.5555555555557" r="10" fill="red"></circle><circle cx="376.0869565217391" cy="905.5555555555557" r="10" fill="red"></circle><circle cx="506.5217391304348" cy="905.5555555555557" r="10" fill="red"></circle><circle cx="636.9565217391305" cy="905.5555555555557" r="10" fill="red"></circle><circle cx="767.3913043478261" cy="905.5555555555557" r="10" fill="red"></circle><circle cx="963.0434782608696" cy="905.5555555555557" r="10" fill="red"></circle><circle cx="1093.4782608695652" cy="905.5555555555557" r="10" fill="red"></circle><circle cx="1223.913043478261" cy="905.5555555555557" r="10" fill="red"></circle><circle cx="1354.3478260869565" cy="905.5555555555557" r="10" fill="green"></circle><circle cx="1484.7826086956522" cy="905.5555555555557" r="10" fill="red"></circle><circle cx="506.5217391304348" cy="1027.7777777777778" r="10" fill="red"></circle><circle cx="636.9565217391305" cy="1027.7777777777778" r="10" fill="green"></circle><circle cx="767.3913043478261" cy="1027.7777777777778" r="10" fill="red"></circle><circle cx="897.8260869565217" cy="1027.7777777777778" r="10" fill="red"></circle><circle cx="1028.2608695652175" cy="1027.7777777777778" r="10" fill="red"></circle><circle cx="506.5217391304348" cy="1150" r="10" fill="red"></circle><circle cx="636.9565217391305" cy="1150" r="10" fill="green"></circle><circle cx="767.3913043478261" cy="1150" r="10" fill="red"></circle><circle cx="897.8260869565217" cy="1150" r="10" fill="red"></circle><circle cx="1028.2608695652175" cy="1150" r="10" fill="red"></circle><text x="702.1739130434783" y="40" text-anchor="middle">G1</text><text x="669.5652173913044" y="162.22222222222223" text-anchor="middle">S1</text><text x="734.7826086956522" y="162.22222222222223" text-anchor="middle">C1</text><text x="278.2608695652174" y="284.44444444444446" text-anchor="middle">G3</text><text x="1060.8695652173915" y="284.44444444444446" text-anchor="middle">G2</text><text x="278.2608695652174" y="406.6666666666667" text-anchor="middle">S3</text><text x="1060.8695652173915" y="406.6666666666667" text-anchor="middle">S2</text><text x="245.6521739130435" y="528.8888888888889" text-anchor="middle">G11</text><text x="310.8695652173913" y="528.8888888888889" text-anchor="middle">G12</text><text x="636.9565217391305" y="528.8888888888889" text-anchor="middle">G4</text><text x="1158.695652173913" y="528.8888888888889" text-anchor="middle">G5</text><text x="1484.7826086956522" y="528.8888888888889" text-anchor="middle">G6</text><text x="245.6521739130435" y="651.1111111111111" text-anchor="middle">S8</text><text x="636.9565217391305" y="651.1111111111111" text-anchor="middle">S4</text><text x="1158.695652173913" y="651.1111111111111" text-anchor="middle">S5</text><text x="1484.7826086956522" y="651.1111111111111" text-anchor="middle">S6</text><text x="115.21739130434783" y="773.3333333333334" text-anchor="middle">G20</text><text x="245.6521739130435" y="773.3333333333334" text-anchor="middle">G21</text><text x="376.0869565217391" y="773.3333333333334" text-anchor="middle">G22</text><text x="506.5217391304348" y="773.3333333333334" text-anchor="middle">G8</text><text x="571.7391304347826" y="773.3333333333334" text-anchor="middle">G10</text><text x="636.9565217391305" y="773.3333333333334" text-anchor="middle">G13</text><text x="767.3913043478261" y="773.3333333333334" text-anchor="middle">G19</text><text x="963.0434782608696" y="773.3333333333334" text-anchor="middle">G9</text><text x="1093.4782608695652" y="773.3333333333334" text-anchor="middle">G14</text><text x="1223.913043478261" y="773.3333333333334" text-anchor="middle">G16</text><text x="1354.3478260869565" y="773.3333333333334" text-anchor="middle">G23</text><text x="1484.7826086956522" y="773.3333333333334" text-anchor="middle">G15</text><text x="115.21739130434783" y="895.5555555555557" text-anchor="middle">Sn2</text><text x="245.6521739130435" y="895.5555555555557" text-anchor="middle">Sn12</text><text x="376.0869565217391" y="895.5555555555557" text-anchor="middle">Sn13</text><text x="506.5217391304348" y="895.5555555555557" text-anchor="middle">Sn3</text><text x="636.9565217391305" y="895.5555555555557" text-anchor="middle">S7</text><text x="767.3913043478261" y="895.5555555555557" text-anchor="middle">Sn11</text><text x="963.0434782608696" y="895.5555555555557" text-anchor="middle">S9</text><text x="1093.4782608695652" y="895.5555555555557" text-anchor="middle">Sn4</text><text x="1223.913043478261" y="895.5555555555557" text-anchor="middle">Sn8</text><text x="1354.3478260869565" y="895.5555555555557" text-anchor="middle">Sn7</text><text x="1484.7826086956522" y="895.5555555555557" text-anchor="middle">Sn9</text><text x="506.5217391304348" y="1017.7777777777778" text-anchor="middle">G7</text><text x="636.9565217391305" y="1017.7777777777778" text-anchor="middle">G17</text><text x="767.3913043478261" y="1017.7777777777778" text-anchor="middle">G18</text><text x="897.8260869565217" y="1017.7777777777778" text-anchor="middle">G24</text><text x="1028.2608695652175" y="1017.7777777777778" text-anchor="middle">G26</text><text x="506.5217391304348" y="1140" text-anchor="middle">Sn1</text><text x="636.9565217391305" y="1140" text-anchor="middle">Sn6</text><text x="767.3913043478261" y="1140" text-anchor="middle">Sn10</text><text x="897.8260869565217" y="1140" text-anchor="middle">Sn5</text><text x="1028.2608695652175" y="1140" text-anchor="middle">Sn14</text><circle cx="50" cy="50" r="10" style="fill: red;"></circle><circle cx="50" cy="75" r="10" style="fill: green;"></circle><text x="70" y="55" text-anchor="left" style="alignment-baseline: middle; font-size: 14px;">Failed</text><text x="70" y="80" text-anchor="left" style="alignment-baseline: middle; font-size: 14px;">Passed</text></svg>